<svg width="40" height="40" viewBox="0 0 40 40" fill="none" xmlns="http://www.w3.org/2000/svg">
<path d="M36 11.7427C34.8226 12.2654 33.5574 12.6174 32.2294 12.7761C33.5854 11.9641 34.6266 10.6774 35.116 9.14406C33.848 9.89606 32.4426 10.4427 30.9466 10.7374C29.7506 9.4614 28.0426 8.66406 26.1546 8.66406C21.916 8.66406 18.8013 12.6187 19.7587 16.7241C14.304 16.4507 9.46666 13.8374 6.228 9.8654C4.508 12.8161 5.336 16.6761 8.25866 18.6307C7.184 18.5961 6.17066 18.3014 5.28666 17.8094C5.21466 20.8508 7.39466 23.696 10.552 24.3294C9.628 24.58 8.616 24.6388 7.58666 24.4414C8.42134 27.0494 10.8453 28.9468 13.72 29C10.96 31.164 7.48266 32.1308 4 31.72C6.90534 33.5828 10.3573 34.6694 14.064 34.6694C26.2534 34.6694 33.14 24.3748 32.724 15.1414C34.0066 14.2147 35.12 13.0587 36 11.7427Z" fill="white"/>
</svg>
