<svg width="32" height="33" viewBox="0 0 32 33" fill="none" xmlns="http://www.w3.org/2000/svg">
<path fill-rule="evenodd" clip-rule="evenodd" d="M4.2024 14.5959C5.67471 14.0712 7.22404 13.374 8.41881 12.3645C9.83781 11.1655 10.4149 9.62133 10.8024 7.99587C11.3 5.90757 11.4988 3.683 12.1021 1.59131C12.3255 0.814538 12.7554 0.520918 12.9398 0.39061C13.4061 0.0614561 13.8773 -0.0265266 14.3207 0.00647343C14.8462 0.0445504 15.568 0.243383 16.0427 1.12423C16.1104 1.25031 16.1983 1.44239 16.2576 1.70555C16.3007 1.89847 16.3286 2.50177 16.3743 2.75053C16.4886 3.36315 16.5842 3.97579 16.6739 4.59179C16.9726 6.64202 17.1444 8.38338 18.0878 10.2669C19.368 12.824 20.6508 14.3885 22.3905 15.0815C24.0727 15.7517 26.084 15.6256 28.6537 15.1002C28.8983 15.0409 29.1402 14.9902 29.3797 14.9487C30.5127 14.7507 31.5958 15.4945 31.8183 16.6232C32.0409 17.7512 31.3208 18.8503 30.198 19.0982C29.9636 19.1498 29.7326 19.1989 29.5041 19.2438C26.0315 20.1035 22.0114 23.1716 19.6752 25.8582C18.9551 26.6866 17.9008 29.0025 16.8253 30.4798C16.0317 31.5697 15.1398 32.2881 14.391 32.5419C13.8892 32.7129 13.4661 32.6866 13.1167 32.6003C12.609 32.4751 12.1876 32.2001 11.8644 31.7626C11.6884 31.5231 11.525 31.2025 11.4472 30.7929C11.4099 30.5958 11.4057 30.0949 11.4066 29.8681C11.1874 29.1142 10.9192 28.378 10.7237 27.6173C10.2575 25.8023 9.3428 24.6532 8.25634 23.1352C7.24011 21.7145 6.1486 20.8219 4.54853 20.1094C4.34037 20.0586 2.66075 19.6474 2.0676 19.4113C1.20114 19.0652 0.788191 18.4856 0.638421 18.1734C0.383729 17.6437 0.357521 17.1809 0.408291 16.795C0.483598 16.2256 0.739138 15.7382 1.19268 15.3447C1.4736 15.1002 1.8933 14.8624 2.45514 14.7465C2.88922 14.6559 4.04079 14.6035 4.2024 14.5959ZM14.0559 11.6377C14.1337 11.8111 14.2167 11.9855 14.3047 12.1615C16.1797 15.9065 18.2765 17.9974 20.8251 19.0119L20.9106 19.0449C19.2056 20.3108 17.6622 21.7255 16.4826 23.0819C15.9969 23.6404 15.3539 24.8005 14.6592 25.9902C14.028 23.9383 12.9957 22.4879 11.6977 20.6729C10.706 19.2878 9.66689 18.2453 8.39005 17.3958C9.38089 16.8873 10.326 16.2916 11.1493 15.596C12.5201 14.4376 13.4263 13.0956 14.0559 11.6377Z" fill="#EE7F74"/>
</svg>
