<svg width="33" height="33" viewBox="0 0 33 33" fill="none" xmlns="http://www.w3.org/2000/svg">
<g clip-path="url(#clip0_544_2760)">
<path fill-rule="evenodd" clip-rule="evenodd" d="M4.20216 14.5959C5.67446 14.0712 7.2238 13.374 8.41857 12.3645C9.83757 11.1655 10.4147 9.62133 10.8022 7.99587C11.2997 5.90757 11.4985 3.683 12.1018 1.59131C12.3252 0.814538 12.7551 0.520918 12.9396 0.39061C13.4058 0.0614561 13.8771 -0.0265266 14.3205 0.00647343C14.8459 0.0445504 15.5677 0.243383 16.0424 1.12423C16.1101 1.25031 16.1981 1.44239 16.2573 1.70555C16.3005 1.89847 16.3284 2.50177 16.3741 2.75053C16.4883 3.36315 16.5839 3.97579 16.6736 4.59179C16.9723 6.64202 17.1441 8.38338 18.0876 10.2669C19.3678 12.824 20.6506 14.3885 22.3903 15.0815C24.0724 15.7517 26.0837 15.6256 28.6535 15.1002C28.898 15.0409 29.14 14.9902 29.3795 14.9487C30.5125 14.7507 31.5956 15.4945 31.8181 16.6232C32.0406 17.7512 31.3206 18.8503 30.1977 19.0982C29.9633 19.1498 29.7323 19.1989 29.5039 19.2438C26.0313 20.1035 22.0112 23.1716 19.6749 25.8582C18.9549 26.6866 17.9006 29.0025 16.8251 30.4798C16.0314 31.5697 15.1396 32.2881 14.3907 32.5419C13.8889 32.7129 13.4659 32.6866 13.1164 32.6003C12.6087 32.4751 12.1874 32.2001 11.8641 31.7626C11.6881 31.5231 11.5248 31.2025 11.4469 30.7929C11.4097 30.5958 11.4055 30.0949 11.4063 29.8681C11.1872 29.1142 10.919 28.378 10.7235 27.6173C10.2573 25.8023 9.34255 24.6532 8.25609 23.1352C7.23986 21.7145 6.14836 20.8219 4.54828 20.1094C4.34013 20.0586 2.66051 19.6474 2.06735 19.4113C1.20089 19.0652 0.787946 18.4856 0.638177 18.1734C0.383485 17.6437 0.357277 17.1809 0.408047 16.795C0.483354 16.2256 0.738894 15.7382 1.19243 15.3447C1.47336 15.1002 1.89305 14.8624 2.4549 14.7465C2.88898 14.6559 4.04054 14.6035 4.20216 14.5959ZM14.0556 11.6377C14.1335 11.8111 14.2164 11.9855 14.3044 12.1615C16.1795 15.9065 18.2762 17.9974 20.8249 19.0119L20.9103 19.0449C19.2053 20.3108 17.6619 21.7255 16.4824 23.0819C15.9967 23.6404 15.3536 24.8005 14.659 25.9902C14.0277 23.9383 12.9954 22.4879 11.6974 20.6729C10.7057 19.2878 9.66665 18.2453 8.3898 17.3958C9.38065 16.8873 10.3258 16.2916 11.1491 15.596C12.5199 14.4376 13.4261 13.0956 14.0556 11.6377Z" fill="#EE7F74"/>
</g>
<defs>
<clipPath id="clip0_544_2760">
<rect width="33" height="33" fill="white"/>
</clipPath>
</defs>
</svg>
