<svg width="34" height="25" viewBox="0 0 34 25" fill="none" xmlns="http://www.w3.org/2000/svg">
<path fill-rule="evenodd" clip-rule="evenodd" d="M33.9358 20.4454C33.9358 20.4454 31.4906 24.6832 25.1332 24.8878C25.1332 24.8878 24.0974 23.6306 23.2346 22.5208C27.003 21.4386 28.4414 19.042 28.4414 19.042C27.2618 19.8318 26.14 20.3872 25.1332 20.7666C23.6946 21.3802 22.3138 21.7894 20.962 22.0238C18.2002 22.5494 15.6688 22.4032 13.5112 21.994C11.8714 21.6728 10.4619 21.2054 9.28248 20.7368C8.62084 20.474 7.90154 20.1528 7.1824 19.7436L7.06972 19.6782L7.03622 19.6628L6.92356 19.5974L6.8084 19.5094L6.00294 19.0122C6.00294 19.0122 7.38388 21.3518 11.0373 22.4614C10.1743 23.5724 9.10982 24.8878 9.10982 24.8878C2.75236 24.6832 0.335938 20.4454 0.335938 20.4454C0.335938 11.0327 4.47832 3.404 4.47832 3.404C8.62084 0.247401 12.5619 0.33422 12.5619 0.33422L12.8495 0.68508C7.67154 2.20512 5.28378 4.51488 5.28378 4.51488C5.28378 4.51488 5.91676 4.16402 6.98106 3.66686C10.0591 2.29312 12.5044 1.91372 13.5112 1.8257L14.0002 1.76742C15.7549 1.53312 17.7398 1.47484 19.8112 1.70796C22.544 2.03028 25.4782 2.84856 28.47 4.51488C28.47 4.51488 26.1974 2.32286 21.307 0.802841L21.7098 0.33422C21.7098 0.33422 25.651 0.247401 29.7934 3.404C29.7934 3.404 33.9358 11.0327 33.9358 20.4454ZM8.82216 14.4818C8.82216 12.699 10.1166 11.2373 11.7564 11.2373C13.3962 11.2373 14.7195 12.699 14.6906 14.4818C14.6906 16.2648 13.3962 17.7266 11.7564 17.7266C10.1455 17.7266 8.82216 16.2648 8.82216 14.4818ZM19.3222 14.4818C19.3222 12.699 20.6166 11.2373 22.2564 11.2373C23.8962 11.2373 25.1906 12.699 25.1906 14.4818C25.1906 16.2648 23.8962 17.7266 22.2564 17.7266C20.6454 17.7266 19.3222 16.2648 19.3222 14.4818Z" fill="#2F4181"/>
</svg>
