<svg width="40" height="40" viewBox="0 0 40 40" fill="none" xmlns="http://www.w3.org/2000/svg">
<path fill-rule="evenodd" clip-rule="evenodd" d="M36.9358 28.4454C36.9358 28.4454 34.4906 32.6832 28.1332 32.8878C28.1332 32.8878 27.0974 31.6306 26.2346 30.5208C30.003 29.4386 31.4414 27.042 31.4414 27.042C30.2618 27.8318 29.14 28.3872 28.1332 28.7666C26.6946 29.3802 25.3138 29.7894 23.962 30.0238C21.2002 30.5494 18.6688 30.4032 16.5112 29.994C14.8714 29.6728 13.4619 29.2054 12.2825 28.7368C11.6208 28.474 10.9015 28.1528 10.1824 27.7436L10.0697 27.6782L10.0362 27.6628L9.92356 27.5974L9.8084 27.5094L9.00294 27.0122C9.00294 27.0122 10.3839 29.3518 14.0373 30.4614C13.1743 31.5724 12.1098 32.8878 12.1098 32.8878C5.75236 32.6832 3.33594 28.4454 3.33594 28.4454C3.33594 19.0327 7.47832 11.404 7.47832 11.404C11.6208 8.2474 15.5619 8.33422 15.5619 8.33422L15.8495 8.68508C10.6715 10.2051 8.28378 12.5149 8.28378 12.5149C8.28378 12.5149 8.91676 12.164 9.98106 11.6669C13.0591 10.2931 15.5044 9.91372 16.5112 9.8257L17.0002 9.76742C18.7549 9.53312 20.7398 9.47484 22.8112 9.70796C25.544 10.0303 28.4782 10.8486 31.47 12.5149C31.47 12.5149 29.1974 10.3229 24.307 8.80284L24.7098 8.33422C24.7098 8.33422 28.651 8.2474 32.7934 11.404C32.7934 11.404 36.9358 19.0327 36.9358 28.4454ZM11.8222 22.4818C11.8222 20.699 13.1166 19.2373 14.7564 19.2373C16.3962 19.2373 17.7195 20.699 17.6906 22.4818C17.6906 24.2648 16.3962 25.7266 14.7564 25.7266C13.1455 25.7266 11.8222 24.2648 11.8222 22.4818ZM22.3222 22.4818C22.3222 20.699 23.6166 19.2373 25.2564 19.2373C26.8962 19.2373 28.1906 20.699 28.1906 22.4818C28.1906 24.2648 26.8962 25.7266 25.2564 25.7266C23.6454 25.7266 22.3222 24.2648 22.3222 22.4818Z" fill="white"/>
</svg>
