<svg width="43" height="52" viewBox="0 0 43 52" fill="none" xmlns="http://www.w3.org/2000/svg">
<path d="M21.5363 52C20.8893 51.4229 20.3017 50.7852 19.782 50.0958C19.4237 49.616 19.0823 49.1243 18.7342 48.6378C18.6876 48.5718 18.6424 48.5058 18.5992 48.4398C18.556 48.3738 18.5068 48.3289 18.4474 48.4279C18.4333 48.4505 18.4168 48.4715 18.3981 48.4906C18.1667 48.7348 17.853 48.7388 17.6303 48.4906C17.5387 48.3832 17.4593 48.2663 17.3935 48.1421C16.6425 46.764 15.7195 45.502 14.7465 44.2665C14.7231 44.2293 14.695 44.1951 14.6629 44.1648C14.5954 44.116 14.5178 44.0764 14.4442 44.0328C14.4243 44.1051 14.4098 44.1788 14.4011 44.2533C14.3835 44.6018 14.366 44.9509 14.3592 45.3007C14.3483 45.8612 14.4432 46.4188 14.6392 46.9455C14.6889 47.0761 14.7231 47.2119 14.7411 47.3501C14.7534 47.4334 14.7377 47.5184 14.6963 47.5922C14.6549 47.666 14.5902 47.7247 14.5117 47.7593C14.4404 47.7975 14.3591 47.8142 14.2782 47.8071C14.1972 47.8001 14.1202 47.7697 14.0569 47.7197C13.9789 47.6608 13.9071 47.5945 13.8424 47.5217C13.2864 46.9406 12.7785 46.3171 12.3236 45.6571C11.4464 44.3615 10.5747 43.0593 9.7009 41.7597C9.63578 41.6511 9.54987 41.5559 9.44788 41.4792C9.42224 41.7095 9.402 41.9412 9.36826 42.1696C9.34368 42.3599 9.30718 42.5486 9.25896 42.7345C9.207 42.9233 9.0842 43.0599 8.86964 43.0811C8.65508 43.1022 8.5262 42.9933 8.43444 42.8309C8.22257 42.4567 8.01813 42.0785 7.81301 41.6996C7.28943 40.7373 6.78001 39.7671 6.24562 38.8047C5.64781 37.723 5.2477 36.5646 4.85568 35.403C4.81115 35.271 4.76797 35.139 4.72074 35.007C4.71534 34.9918 4.69915 34.9805 4.67823 34.9561C4.59524 35.0558 4.52169 35.1541 4.43938 35.2413C4.23696 35.4637 4.03454 35.5284 3.82672 35.4439C3.61891 35.3594 3.50555 35.1429 3.52917 34.8499C3.56358 34.4321 3.60406 34.0149 3.64185 33.5958C3.76735 32.1906 3.79568 30.7881 3.54873 29.3901C3.44685 28.8133 3.35981 28.2338 3.27884 27.6543C3.27619 27.5866 3.25161 27.5216 3.20867 27.4686C3.16573 27.4155 3.10666 27.3772 3.03999 27.3592C2.71612 27.2384 2.4044 27.0853 2.09537 26.9335C1.99214 26.8833 1.94558 26.8866 1.89295 26.9922C1.82163 27.1331 1.73858 27.268 1.64465 27.3955C1.48947 27.6074 1.32956 27.6721 1.1467 27.6166C0.963853 27.5612 0.868717 27.4259 0.876814 27.1579C0.887609 26.8173 0.922695 26.4781 0.944286 26.1382C0.938893 26.0909 0.927328 26.0446 0.909875 26.0002C0.87074 26.0174 0.832281 26.0359 0.791797 26.051C0.6609 26.1005 0.532028 26.1771 0.396408 26.1903C0.126517 26.2161 -0.0367689 26.0187 0.00708839 25.7573C0.0213463 25.6889 0.0393664 25.6213 0.0610679 25.5547C0.145409 25.2603 0.240544 24.9679 0.310716 24.6709C0.347207 24.5105 0.361279 24.346 0.352549 24.1819C0.26146 22.3919 0.675069 20.7497 1.80996 19.3095C2.2013 18.8132 2.65202 18.3796 3.23229 18.0977C3.37398 18.0317 3.38613 17.9208 3.40232 17.7987C3.49138 17.1387 3.56628 16.4787 3.67221 15.8259C3.84946 14.7556 4.15169 13.7088 4.57297 12.706C4.96391 11.7671 5.41462 10.8532 5.92243 9.96949C6.66058 8.69498 7.66862 7.6594 8.83793 6.75318C9.81628 6.00141 10.7872 5.24502 11.8175 4.56255C12.3188 4.23254 12.7689 3.82398 13.2513 3.46295C15.1466 2.04521 17.2383 0.976628 19.444 0.111992C19.5753 0.0577744 19.7135 0.0213562 19.8549 0.00374809C20.2078 -0.0318934 20.4446 0.189876 20.4223 0.53177C20.4114 0.661991 20.3778 0.789436 20.3231 0.908644C20.2348 1.10665 20.1207 1.29806 20.0236 1.49409C19.9986 1.55313 19.9779 1.61377 19.9615 1.6756C20.0199 1.663 20.0775 1.64736 20.1342 1.62873C20.4163 1.51917 20.6949 1.40036 20.979 1.29872C22.3044 0.818455 23.6972 0.539983 25.109 0.473027C25.225 0.46709 25.3413 0.468413 25.4571 0.476987C25.6967 0.494808 25.8856 0.595792 25.9834 0.821521C26.0813 1.04725 26.0091 1.23734 25.8647 1.40631C25.7356 1.55136 25.5989 1.68971 25.4551 1.8208C25.3735 1.89869 25.281 1.96469 25.1933 2.03663L25.2291 2.10263C25.2864 2.10263 25.3431 2.10263 25.3998 2.10263C26.4273 2.06883 27.4559 2.12716 28.4725 2.27688C28.5865 2.29361 28.6991 2.31764 28.8099 2.34882C29.0292 2.41483 29.1958 2.53891 29.2471 2.76662C29.2984 2.99433 29.1992 3.17518 29.0271 3.32368C29.0001 3.34678 28.9718 3.3679 28.9435 3.38968C28.7633 3.52631 28.7626 3.52829 28.9779 3.63588C30.575 4.42791 32.0776 5.37241 33.5451 6.37037C34.5916 7.08254 35.5416 7.90427 36.296 8.92005C36.5475 9.24895 36.7782 9.59259 36.9869 9.94903C37.864 11.4981 38.6062 13.1059 38.9902 14.8458C39.2088 15.8358 39.3633 16.8377 39.5367 17.8364C39.5603 17.9684 39.6042 18.0561 39.731 18.1162C39.8759 18.1829 40.0118 18.2666 40.1359 18.3657C40.1961 18.4177 40.2679 18.4551 40.3456 18.4749C40.4233 18.4947 40.5047 18.4964 40.5832 18.4799C40.7411 18.4522 40.8976 18.4178 41.0555 18.3842C41.3962 18.3096 41.5784 18.4541 41.5494 18.7947C41.5313 18.9597 41.4997 19.1231 41.4549 19.2831C41.4253 19.4 41.4711 19.4151 41.575 19.4118C41.8962 19.4118 42.2174 19.4165 42.5379 19.4231C42.6005 19.4243 42.6626 19.4336 42.7228 19.4508C42.9926 19.528 43.0824 19.7551 42.9164 19.9788C42.7963 20.1405 42.6465 20.2811 42.5116 20.4329C42.3766 20.5847 42.1742 20.7227 42.1324 20.8949C42.0905 21.0672 42.2167 21.2705 42.2673 21.4606C42.5109 22.3523 42.6755 23.2558 42.5669 24.1805C42.3881 25.6986 41.5589 26.75 40.0933 27.2879C39.7857 27.4008 39.6446 27.5368 39.621 27.8648C39.5839 28.3334 39.4787 28.7974 39.4071 29.2641C39.3913 29.3765 39.3838 29.4898 39.3849 29.6033C39.3849 30.9405 39.3849 32.2777 39.3849 33.615C39.3849 34.4017 39.3984 35.1885 39.4004 35.9752C39.4012 36.1236 39.3874 36.2717 39.3592 36.4174C39.3161 36.6286 39.1926 36.7884 38.9679 36.8385C38.8626 36.8653 38.7513 36.8587 38.6501 36.8197C38.5488 36.7807 38.4628 36.7112 38.4045 36.6214C38.2937 36.4522 38.1949 36.2758 38.109 36.0934C38.0611 36.0016 38.03 35.9013 37.974 35.7633C37.9234 35.8901 37.8843 35.9739 37.8559 36.061C37.4578 37.2676 36.9325 38.4304 36.2886 39.5308C35.8898 40.2126 35.5362 40.9201 35.1597 41.6151C35.068 41.7848 34.9742 41.9544 34.8669 42.1148C34.7509 42.2884 34.6024 42.4303 34.3649 42.4052C34.1153 42.3788 33.9999 42.1993 33.927 41.9953C33.8541 41.7914 33.8143 41.5914 33.7549 41.3901C33.7104 41.2383 33.6834 41.2284 33.5681 41.3425C33.4458 41.4583 33.333 41.5832 33.2307 41.7161C32.8987 42.1715 32.5695 42.6283 32.2503 43.0923C31.61 44.0289 30.9744 44.9707 30.328 45.9053C30.2047 46.0874 30.0644 46.258 29.909 46.4149C29.5824 46.7389 29.1918 46.6518 29.0757 46.2102C28.99 45.8802 28.9786 45.5383 28.9408 45.2011C28.9016 44.8803 28.8733 44.5589 28.8288 44.2387C28.8158 44.1615 28.7932 44.0861 28.7613 44.0143C28.7576 43.9969 28.7495 43.9806 28.7376 43.9671C28.7256 43.9537 28.7104 43.9434 28.6933 43.9373C28.6762 43.9312 28.6577 43.9295 28.6398 43.9324C28.6218 43.9352 28.6049 43.9425 28.5906 43.9536C28.5115 43.9941 28.4353 44.0398 28.3625 44.0902C28.0232 44.3326 27.734 44.6359 27.5103 44.9839C26.7769 46.172 26.0259 47.3527 25.2797 48.5349C25.2297 48.6176 25.1714 48.6952 25.1056 48.7665C24.8688 49.0134 24.5739 49.0266 24.3331 48.785C24.2379 48.69 24.1981 48.6853 24.1131 48.789C23.5362 49.5018 22.9546 50.21 22.3743 50.9202C22.3176 50.9895 22.2542 51.0575 22.3068 51.1545C22.4708 51.4647 22.404 51.7426 22.1854 52H21.5363ZM16.2849 19.6296L14.476 19.7617C13.6946 19.8171 12.9673 20.1016 12.2149 20.2791C12.0854 20.3095 12.051 20.3827 12.0544 20.5048C12.08 21.4507 12.3533 22.3113 12.9835 23.0413C14.0462 24.2736 15.7613 24.4591 17.0548 23.4591C18.1343 22.6248 18.5999 21.4856 18.6485 20.1629C18.6532 20.0309 18.5972 19.9828 18.471 19.957C18.272 19.9154 18.0783 19.8501 17.8813 19.798C17.738 19.7503 17.5905 19.7156 17.4407 19.6943C16.9967 19.6587 16.5514 19.6435 16.2849 19.6296ZM26.8545 19.6224V19.6422C26.5691 19.6422 26.2823 19.6263 25.9983 19.6461C25.7144 19.6682 25.4322 19.7081 25.1535 19.7656C24.9113 19.8145 24.6765 19.8976 24.4363 19.9603C24.3351 19.9861 24.277 20.0263 24.2872 20.1379C24.302 20.2936 24.3067 20.4514 24.3256 20.6071C24.4606 21.6777 24.8917 22.6031 25.7216 23.3284C26.8053 24.2749 28.3274 24.3614 29.4326 23.5198C30.4447 22.7522 30.8577 21.6988 30.8759 20.4725C30.8759 20.3715 30.8475 20.3088 30.7409 20.2818C30.1809 20.1379 29.629 19.9484 29.0602 19.856C28.3322 19.7379 27.59 19.697 26.8545 19.6224Z" fill="#8691FF"/>
</svg>
