<svg width="29" height="33" viewBox="0 0 29 33" fill="none" xmlns="http://www.w3.org/2000/svg">
<path d="M27.9306 12.9405C27.995 12.9374 28.0368 12.9324 28.0787 12.9339C28.3215 12.942 28.5659 12.939 28.8067 12.9656C28.9939 12.9865 29.0567 13.143 28.9437 13.2921C28.8291 13.4401 28.7034 13.5796 28.5679 13.7094C28.4253 13.8485 28.3756 13.9699 28.4538 14.1828C28.6606 14.7463 28.7509 15.3444 28.7195 15.9424C28.6674 16.9799 28.1742 17.7396 27.1911 18.1704C27.0802 18.2191 26.9629 18.2539 26.8504 18.2999C26.8176 18.313 26.7714 18.3385 26.7659 18.3655C26.6913 18.8752 26.591 19.3837 26.5598 19.8961C26.527 20.437 26.5649 20.9842 26.5645 21.5282C26.5645 22.1078 26.5527 22.6874 26.5515 23.267C26.5515 23.5549 26.5649 23.8428 26.5673 24.1306C26.5678 24.2184 26.5596 24.306 26.5428 24.3922C26.516 24.5336 26.4342 24.6387 26.2885 24.6774C26.2238 24.6961 26.1545 24.6936 26.0913 24.6703C26.0281 24.647 25.9744 24.6042 25.9383 24.5483C25.8506 24.4121 25.7726 24.2701 25.705 24.1233C25.6738 24.0622 25.6556 23.9946 25.6059 23.9301C25.5482 24.0912 25.4874 24.2516 25.4333 24.4135C25.1885 25.1399 24.8518 25.8238 24.4704 26.4904C24.1691 27.017 23.8931 27.5572 23.6017 28.0897C23.5576 28.174 23.5031 28.2527 23.4395 28.3242C23.2847 28.4931 23.0636 28.4768 22.9605 28.2747C22.8816 28.1202 22.8456 27.9448 22.7908 27.7786C22.7766 27.7361 22.7631 27.694 22.7383 27.6179C22.6376 27.7191 22.5408 27.7933 22.4741 27.8883C22.1609 28.3203 21.8521 28.7556 21.5479 29.194C21.1333 29.7879 20.7242 30.3864 20.3089 30.9799C20.2489 31.063 20.1774 31.1375 20.0965 31.2013C19.9445 31.3238 19.7467 31.2929 19.6752 31.1152C19.6097 30.9525 19.584 30.7717 19.5611 30.5962C19.5216 30.301 19.507 30.0031 19.4667 29.7075C19.4272 29.4324 19.3558 29.4111 19.1213 29.5684C18.8011 29.7829 18.5938 30.085 18.3967 30.403C18.0382 30.9826 17.6651 31.553 17.3003 32.1287C17.2056 32.2778 17.1191 32.4316 17.0279 32.5823C17.0045 32.6221 16.9781 32.6601 16.9489 32.6959C16.7878 32.8891 16.626 32.8996 16.453 32.7172C16.2801 32.5348 16.2082 32.2921 16.117 32.0638C16.0907 31.9839 16.0591 31.9058 16.0223 31.83C15.9409 31.6859 15.8197 31.5982 15.642 31.5982C15.5624 31.5949 15.4836 31.6153 15.416 31.6567C15.3484 31.698 15.2952 31.7585 15.2634 31.83C15.1805 31.9965 15.1232 32.1754 15.0427 32.3431C14.969 32.5031 14.8843 32.658 14.7892 32.8068C14.6585 33.005 14.4903 33.0452 14.2677 32.9525C14.103 32.8875 13.9669 32.768 13.8831 32.6148C13.7761 32.4216 13.6703 32.2245 13.5546 32.0352C13.4992 31.9409 13.4304 31.8549 13.3501 31.7798C13.3086 31.7401 13.2586 31.71 13.2036 31.6919C13.1486 31.6739 13.0902 31.6682 13.0327 31.6753C12.9751 31.6824 12.92 31.7022 12.8714 31.7332C12.8228 31.7641 12.7819 31.8054 12.7519 31.854C12.6378 32.0387 12.5545 32.2427 12.457 32.4367C12.3038 32.7392 12.0191 32.7608 11.8351 32.4753C11.6511 32.1897 11.4912 31.8748 11.299 31.5866C10.9831 31.114 10.6514 30.6515 10.3218 30.1878C10.197 30.012 10.0632 29.8424 9.92694 29.6751C9.86383 29.6084 9.79616 29.5461 9.72439 29.4884C9.70856 29.5154 9.69635 29.5442 9.68807 29.5742C9.65728 30.1275 9.60595 30.682 9.75164 31.228C9.79586 31.3941 9.861 31.5549 9.90759 31.7207C9.95616 31.8945 9.85824 32.0503 9.68728 32.0785C9.63724 32.0869 9.58579 32.0821 9.5383 32.0645C9.4908 32.0469 9.449 32.0172 9.41722 31.9784C9.16611 31.6948 8.90039 31.4212 8.67179 31.1206C7.93702 30.1546 7.26739 29.1438 6.61869 28.1213C6.54368 28.0054 6.46076 27.8895 6.3818 27.7736L6.34824 27.7813C6.34192 27.8157 6.33442 27.8501 6.32968 27.8845C6.29889 28.1163 6.27046 28.3501 6.23769 28.5823C6.23083 28.631 6.21617 28.6784 6.19426 28.7226C6.08489 28.9409 5.83891 28.9637 5.70941 28.757C5.55543 28.5081 5.4204 28.2481 5.28102 27.9907C4.92015 27.3242 4.5656 26.6542 4.20078 25.9896C3.95732 25.5398 3.74968 25.0723 3.57972 24.5912C3.4435 24.2145 3.32111 23.8327 3.19161 23.4536C3.18292 23.4278 3.16989 23.4038 3.15212 23.3644L3.07987 23.4544C3.03565 23.5093 2.99537 23.568 2.94681 23.619C2.82441 23.7481 2.69057 23.7844 2.56265 23.7295C2.43472 23.6747 2.36523 23.5298 2.37866 23.3659C2.40077 23.1144 2.43156 22.8636 2.44578 22.6117C2.47658 22.0653 2.53264 21.5174 2.51566 20.9722C2.49869 20.4343 2.40906 19.8988 2.34312 19.3632C2.30364 19.0499 2.25152 18.7384 2.19901 18.427C2.19496 18.4028 2.18585 18.3798 2.17226 18.3592C2.15868 18.3387 2.1409 18.3211 2.12005 18.3076C1.86302 18.1851 1.60125 18.0719 1.34106 17.956C1.32571 17.9505 1.31002 17.9459 1.29407 17.9424C1.23682 18.0398 1.18273 18.138 1.12232 18.2322C1.08967 18.2865 1.04984 18.3362 1.00387 18.3802C0.933989 18.4436 0.854233 18.49 0.750789 18.4486C0.700489 18.4327 0.657074 18.4008 0.627454 18.3579C0.597834 18.3151 0.583709 18.2638 0.58733 18.2121C0.59957 17.939 0.620892 17.6665 0.638659 17.3934C0.638659 17.3679 0.641423 17.342 0.643792 17.2975C0.582808 17.3438 0.518109 17.3851 0.450327 17.4212C0.380506 17.4546 0.305045 17.4753 0.227644 17.4822C0.196102 17.4862 0.164043 17.4829 0.13408 17.4724C0.104118 17.462 0.0771056 17.4448 0.0552405 17.4222C0.0333754 17.3996 0.0172796 17.3722 0.00826814 17.3424C-0.000743364 17.3125 -0.00241655 17.281 0.00338583 17.2504C0.0214338 17.1399 0.0478279 17.0309 0.082351 16.9243C0.109594 16.8261 0.13802 16.7284 0.170001 16.6314C0.24028 16.4185 0.233567 16.2063 0.228435 15.9811C0.20435 14.9513 0.425848 13.9815 1.02875 13.1155C1.28578 12.7465 1.57756 12.4127 1.96093 12.1642C2.03195 12.1166 2.10652 12.0742 2.18401 12.0375C2.25587 12.0046 2.27877 11.956 2.28785 11.8829C2.33167 11.5139 2.37747 11.1449 2.43078 10.7771C2.52471 10.1166 2.68649 9.46714 2.91365 8.83849C3.20648 8.05212 3.56707 7.29152 3.99152 6.56492C4.42189 5.81153 4.99768 5.14711 5.6869 4.60858C6.30836 4.12211 6.94087 3.64877 7.5722 3.17388C8.09771 2.77821 8.62915 2.39181 9.15663 1.99768C9.66636 1.61476 10.2274 1.32612 10.8074 1.05757C11.5896 0.690857 12.3994 0.383537 13.2297 0.138331C13.3904 0.0915766 13.553 0.0506183 13.7429 0C13.7429 0.0950542 13.7674 0.188563 13.7382 0.260819C13.6537 0.468316 13.5483 0.667698 13.4504 0.870171C13.4338 0.904174 13.4136 0.936631 13.3785 1.00039C13.4421 0.979908 13.4768 0.971793 13.5088 0.957883C14.1887 0.660742 14.8907 0.416925 15.6259 0.308346C15.9524 0.260047 16.2907 0.276662 16.6236 0.281685C16.8881 0.285549 17.1519 0.320325 17.4164 0.333462C17.4973 0.337713 17.5202 0.379444 17.5285 0.445518C17.5361 0.503387 17.5299 0.562175 17.5106 0.617369C17.4913 0.672562 17.4594 0.722693 17.4172 0.763911C17.2987 0.889491 17.17 1.00812 17.046 1.13022C17.0168 1.15881 16.9888 1.18856 16.9446 1.23454C16.9991 1.23841 17.0291 1.24266 17.0595 1.24266C17.1527 1.24266 17.2462 1.24459 17.3394 1.23802C17.7891 1.20788 18.2297 1.29135 18.666 1.38717C18.9795 1.45672 19.2898 1.54173 19.6002 1.62403C19.7269 1.65765 19.7498 1.70866 19.7103 1.83462C19.6685 1.96716 19.5682 2.05023 19.4549 2.12249C19.4316 2.13756 19.4103 2.15572 19.3795 2.1789C19.3976 2.19677 19.4175 2.2127 19.4391 2.22643C20.286 2.63717 21.0843 3.1279 21.8767 3.62906C22.5653 4.06453 23.2294 4.52937 23.8153 5.09428C24.3152 5.58017 24.7368 6.13753 25.0658 6.7473C25.4512 7.45334 25.7774 8.18889 26.041 8.94668C26.2348 9.50194 26.36 10.075 26.4599 10.653C26.5317 11.0676 26.5961 11.4834 26.6612 11.8992C26.6642 11.9283 26.6748 11.9561 26.6919 11.9801C26.7091 12.0041 26.7322 12.0233 26.7592 12.0359C26.8871 12.1063 27.0055 12.1928 27.1335 12.2628C27.1898 12.297 27.2551 12.3145 27.3214 12.313C27.4627 12.2979 27.6021 12.2612 27.7423 12.2338C27.9168 12.1994 28.0187 12.2724 28.0163 12.4459C28.0064 12.5643 27.9884 12.6819 27.9622 12.7979C27.9555 12.8385 27.9444 12.8787 27.9306 12.9405ZM17.7662 13.0487C17.598 13.0611 17.3872 13.0584 17.1846 13.0954C16.926 13.143 16.6714 13.2206 16.4191 13.2914C16.4037 13.3 16.3907 13.3121 16.3811 13.3267C16.3716 13.3413 16.3658 13.3579 16.3642 13.3752C16.3643 13.4768 16.37 13.5783 16.3812 13.6793C16.4601 14.4521 16.7693 15.1163 17.382 15.6194C17.874 16.0228 18.4453 16.194 19.0873 16.0607C19.6661 15.9401 20.0965 15.6078 20.4115 15.1267C20.7064 14.678 20.8577 14.1532 20.8459 13.6198C20.8459 13.5568 20.8285 13.5159 20.7578 13.4969C20.4814 13.4231 20.2086 13.3369 19.931 13.2682C19.233 13.0927 18.518 13.0881 17.7662 13.0468V13.0487ZM11.216 13.0363C10.6633 13.075 10.1788 13.1109 9.6932 13.1468C9.16967 13.1855 8.68482 13.3829 8.18141 13.5054C8.16312 13.515 8.14748 13.5288 8.13586 13.5457C8.12423 13.5625 8.11697 13.5818 8.11469 13.602C8.11311 13.728 8.11904 13.8539 8.13246 13.9791C8.18739 14.5454 8.43421 15.0775 8.83367 15.4907C9.45236 16.1418 10.4718 16.2995 11.2457 15.8346C12.1806 15.2728 12.5604 14.41 12.5881 13.3686C12.5881 13.3111 12.5628 13.2914 12.5091 13.2778C12.3405 13.2357 12.1755 13.1743 12.0049 13.1441C11.7226 13.0951 11.4383 13.0649 11.216 13.0344V13.0363Z" fill="#2F4181"/>
</svg>
