<svg width="299" height="54" viewBox="0 0 299 54" fill="none" xmlns="http://www.w3.org/2000/svg">
<path opacity="0.2" d="M297.685 46.5682L298.683 46.6363C298.685 46.6079 298.685 46.5794 298.685 46.5509L297.685 46.5682ZM297.751 15.8526L298.751 15.8614V15.8613L297.751 15.8526ZM297.98 7.06546L296.981 7.09938L296.981 7.09947L297.98 7.06546ZM297.139 2.92684L296.302 3.47338V3.47342L297.139 2.92684ZM292.349 2.01736L292.292 3.01579L292.293 3.01579L292.349 2.01736ZM278.679 1.41677L278.646 2.41624L278.646 2.41624L278.679 1.41677ZM26.06 1.15198L26.0682 2.15195L26.0682 2.15195L26.06 1.15198ZM7.97595 1.26109L7.97366 0.261089L7.97347 0.26109L7.97595 1.26109ZM3.5667 1.14614L3.46853 0.150971L3.46818 0.151006L3.5667 1.14614ZM1.59978 2.14701L0.769271 1.59001L0.768988 1.59043L1.59978 2.14701ZM1.12827 6.02385L2.12826 6.02807L2.12826 6.02789L1.12827 6.02385ZM1.12769 15.6819L2.12769 15.6789L2.12769 15.6788L1.12769 15.6819ZM1.1191 42.293L2.11903 42.3052L2.11903 42.3052L1.1191 42.293ZM1.00832 48.6269L2.00804 48.6505L2.00805 48.6502L1.00832 48.6269ZM1.68095 52.005L0.892994 52.6208L0.893184 52.621L1.68095 52.005ZM3.90995 52.9862L3.96453 51.9877H3.96452L3.90995 52.9862ZM8.53583 52.6214L8.45313 51.6248L8.45289 51.6248L8.53583 52.6214ZM26.8335 51.5745L26.8687 52.5739L26.8687 52.5739L26.8335 51.5745ZM293.282 50.7378L293.318 51.7372L293.318 51.7371L293.282 50.7378ZM0.296711 9.20257C-0.000958204 9.66778 0.134853 10.2862 0.600053 10.5839C1.06525 10.8815 1.68368 10.7457 1.98135 10.2805L0.296711 9.20257ZM8.2852 1.9189C8.64753 1.50209 8.60336 0.870464 8.18654 0.508135C7.76973 0.145805 7.1381 0.189976 6.77577 0.606793L8.2852 1.9189ZM0.353485 19.7589C0.0192019 20.1986 0.104601 20.8259 0.54423 21.1602C0.983858 21.4945 1.61124 21.4091 1.94552 20.9695L0.353485 19.7589ZM16.6989 1.84637C17.0438 1.41509 16.9739 0.785799 16.5426 0.440812C16.1113 0.0958254 15.482 0.16578 15.1371 0.59706L16.6989 1.84637ZM0.368015 29.8659C0.0465371 30.3149 0.149977 30.9396 0.599054 31.2611C1.04813 31.5826 1.67279 31.4791 1.99427 31.03L0.368015 29.8659ZM25.4456 1.8423C25.8217 1.43786 25.7987 0.805115 25.3943 0.429022C24.9898 0.0529282 24.3571 0.0759079 23.981 0.480348L25.4456 1.8423ZM0.343917 39.3441C0.00897831 39.7832 0.0934418 40.4107 0.532571 40.7456C0.971701 41.0806 1.59921 40.9961 1.93415 40.557L0.343917 39.3441ZM33.2995 1.76084C33.6487 1.33292 33.5848 0.702984 33.1569 0.353836C32.729 0.00468928 32.0991 0.0685465 31.7499 0.496466L33.2995 1.76084ZM0.289015 48.7441C-0.0797606 49.1552 -0.0454307 49.7875 0.365693 50.1562C0.776817 50.525 1.40905 50.4907 1.77783 50.0796L0.289015 48.7441ZM42.8338 1.79879C43.2192 1.40322 43.2109 0.770107 42.8154 0.384695C42.4198 -0.000717521 41.7867 0.00751734 41.4013 0.403088L42.8338 1.79879ZM4.53801 52.2964C4.16782 52.7062 4.19996 53.3385 4.60981 53.7087C5.01965 54.0789 5.652 54.0468 6.0222 53.637L4.53801 52.2964ZM50.948 1.74871C51.3169 1.33767 51.2827 0.70543 50.8717 0.336559C50.4606 -0.0323129 49.8284 0.00186992 49.4595 0.412908L50.948 1.74871ZM14.1073 51.4676C13.7381 51.8783 13.7717 52.5106 14.1824 52.8798C14.5932 53.249 15.2254 53.2154 15.5946 52.8046L14.1073 51.4676ZM59.4202 1.72942C59.7881 1.3175 59.7524 0.685347 59.3405 0.317459C58.9285 -0.0504278 58.2964 -0.0147327 57.9285 0.397187L59.4202 1.72942ZM22.684 51.0257C22.3154 51.437 22.3501 52.0692 22.7615 52.4378C23.1728 52.8063 23.805 52.7716 24.1736 52.3603L22.684 51.0257ZM67.3941 1.71567C67.7613 1.30315 67.7246 0.67105 67.3121 0.303833C66.8996 -0.0633839 66.2675 -0.0266612 65.9003 0.385856L67.3941 1.71567ZM31.5166 50.7902C31.1473 51.2009 31.1808 51.8332 31.5915 52.2024C32.0021 52.5717 32.6344 52.5382 33.0037 52.1275L31.5166 50.7902ZM76.2113 1.70943C76.5793 1.29757 76.5437 0.665409 76.1318 0.297449C75.72 -0.0705118 75.0878 -0.0349294 74.7198 0.376924L76.2113 1.70943ZM40.5802 50.693C40.211 51.1037 40.2446 51.736 40.6554 52.1052C41.0661 52.4744 41.6984 52.4407 42.0676 52.03L40.5802 50.693ZM85.2297 1.69906C85.5975 1.28713 85.5618 0.654973 85.1499 0.287099C84.738 -0.0807756 84.1058 -0.0450606 83.7379 0.36687L85.2297 1.69906ZM49.3296 50.6307C48.9593 51.0404 48.9912 51.6728 49.4009 52.0431C49.8106 52.4135 50.443 52.3816 50.8133 51.9718L49.3296 50.6307ZM94.1692 1.69354C94.5382 1.28263 94.5042 0.650373 94.0933 0.28136C93.6824 -0.0876528 93.0502 -0.0536877 92.6812 0.357223L94.1692 1.69354ZM57.7391 50.5964C57.3688 51.0062 57.4009 51.6385 57.8106 52.0088C58.2204 52.3791 58.8527 52.347 59.223 51.9373L57.7391 50.5964ZM102.509 1.68848C102.878 1.27752 102.844 0.64527 102.433 0.276312C102.022 -0.0926465 101.39 -0.0585971 101.021 0.352363L102.509 1.68848ZM66.2254 50.5623C65.8551 50.972 65.8871 51.6044 66.2969 51.9747C66.7066 52.345 67.339 52.3129 67.7093 51.9032L66.2254 50.5623ZM110.897 1.67856C111.266 1.2676 111.232 0.635351 110.821 0.266393C110.41 -0.102565 109.778 -0.0685159 109.409 0.342444L110.897 1.67856ZM74.7089 50.5481C74.3386 50.9579 74.3707 51.5902 74.7804 51.9605C75.1902 52.3308 75.8225 52.2988 76.1928 51.889L74.7089 50.5481ZM119.433 1.67331C119.802 1.26235 119.768 0.6301 119.357 0.261142C118.946 -0.107816 118.314 -0.0737669 117.945 0.337193L119.433 1.67331ZM83.1836 50.529C82.8133 50.9387 82.8453 51.5711 83.2551 51.9414C83.6648 52.3116 84.2972 52.2796 84.6675 51.8699L83.1836 50.529ZM127.798 1.67331C128.167 1.26235 128.133 0.6301 127.722 0.261142C127.311 -0.107816 126.679 -0.0737669 126.31 0.337193L127.798 1.67331ZM91.6645 50.5183C91.2942 50.9281 91.3262 51.5604 91.736 51.9307C92.1457 52.301 92.7781 52.269 93.1484 51.8592L91.6645 50.5183ZM136.303 1.67098C136.672 1.26002 136.638 0.627766 136.227 0.258808C135.816 -0.11015 135.184 -0.0761008 134.815 0.334859L136.303 1.67098ZM100.136 50.5089C99.7662 50.9187 99.7982 51.5511 100.208 51.9213C100.618 52.2916 101.25 52.2596 101.62 51.8498L100.136 50.5089ZM144.752 1.67098C145.121 1.26002 145.087 0.627766 144.676 0.258808C144.265 -0.11015 143.633 -0.0761008 143.264 0.334859L144.752 1.67098ZM108.603 50.4985C108.233 50.9082 108.265 51.5406 108.675 51.9109C109.084 52.2811 109.717 52.2491 110.087 51.8394L108.603 50.4985ZM153.146 1.66835C153.515 1.25739 153.481 0.625141 153.07 0.256182C152.659 -0.112776 152.027 -0.0787264 151.658 0.332234L153.146 1.66835ZM117.073 50.4943C116.703 50.904 116.735 51.5364 117.145 51.9067C117.555 52.2769 118.187 52.2449 118.557 51.8352L117.073 50.4943ZM161.784 1.67593C162.153 1.26497 162.119 0.632726 161.708 0.263767C161.297 -0.105191 160.665 -0.0711415 160.296 0.339819L161.784 1.67593ZM125.524 50.4872C125.154 50.8969 125.186 51.5293 125.595 51.8996C126.005 52.2698 126.637 52.2378 127.008 51.8281L125.524 50.4872ZM170.23 1.67331C170.598 1.26235 170.564 0.6301 170.153 0.261142C169.742 -0.107816 169.11 -0.0737669 168.741 0.337193L170.23 1.67331ZM134.005 50.4911C133.634 50.9008 133.666 51.5332 134.076 51.9035C134.486 52.2738 135.118 52.2417 135.489 51.832L134.005 50.4911ZM178.564 1.68089C178.933 1.26993 178.899 0.637685 178.488 0.268727C178.077 -0.100231 177.444 -0.066182 177.075 0.344778L178.564 1.68089ZM142.466 50.4943C142.096 50.904 142.128 51.5364 142.538 51.9067C142.947 52.2769 143.58 52.2449 143.95 51.8352L142.466 50.4943ZM187.121 1.68848C187.49 1.27752 187.456 0.64527 187.045 0.276312C186.634 -0.0926465 186.001 -0.0585971 185.632 0.352363L187.121 1.68848ZM150.927 50.4889C150.557 50.8987 150.589 51.531 150.999 51.9013C151.409 52.2716 152.041 52.2396 152.411 51.8298L150.927 50.4889ZM195.568 1.69606C195.937 1.2851 195.903 0.652855 195.492 0.283897C195.081 -0.0850616 194.449 -0.0510122 194.08 0.359948L195.568 1.69606ZM159.399 50.4885C159.029 50.8983 159.061 51.5306 159.471 51.9009C159.881 52.2712 160.513 52.2391 160.883 51.8294L159.399 50.4885ZM203.985 1.70598C204.354 1.29502 204.32 0.662774 203.909 0.293815C203.498 -0.0751427 202.866 -0.0410933 202.497 0.369867L203.985 1.70598ZM167.846 50.4889C167.476 50.8987 167.508 51.531 167.918 51.9013C168.328 52.2716 168.96 52.2396 169.33 51.8298L167.846 50.4889ZM212.382 1.72115C212.751 1.31019 212.717 0.677944 212.306 0.308985C211.895 -0.0599729 211.263 -0.0259235 210.894 0.385037L212.382 1.72115ZM176.322 50.4875C175.952 50.8973 175.984 51.5297 176.393 51.8999C176.803 52.2702 177.435 52.2382 177.806 51.8284L176.322 50.4875ZM220.907 1.73632C221.276 1.32536 221.242 0.693113 220.831 0.324155C220.42 -0.0448029 219.788 -0.0107536 219.419 0.400207L220.907 1.73632ZM184.772 50.4867C184.402 50.8964 184.434 51.5288 184.844 51.8991C185.254 52.2693 185.886 52.2373 186.256 51.8276L184.772 50.4867ZM229.439 1.75383C229.808 1.34287 229.774 0.710617 229.363 0.341659C228.952 -0.0272992 228.32 0.00675017 227.951 0.41771L229.439 1.75383ZM193.232 50.4803C192.862 50.8901 192.894 51.5225 193.303 51.8927C193.713 52.263 194.346 52.231 194.716 51.8212L193.232 50.4803ZM237.886 1.78154C238.255 1.37058 238.221 0.738331 237.81 0.369373C237.399 0.000415027 236.767 0.0344644 236.398 0.445425L237.886 1.78154ZM201.706 50.4817C201.335 50.8915 201.367 51.5239 201.777 51.8941C202.187 52.2644 202.819 52.2324 203.19 51.8226L201.706 50.4817ZM246.196 1.80663C246.564 1.39567 246.53 0.76342 246.119 0.394462C245.709 0.0255037 245.076 0.059553 244.707 0.470513L246.196 1.80663ZM210.167 50.4757C209.797 50.8854 209.829 51.5178 210.238 51.8881C210.648 52.2584 211.281 52.2263 211.651 51.8166L210.167 50.4757ZM254.572 1.84455C254.941 1.43359 254.907 0.801345 254.496 0.432387C254.085 0.0634284 253.453 0.0974778 253.084 0.508438L254.572 1.84455ZM218.641 50.4696C218.27 50.8794 218.302 51.5118 218.712 51.882C219.122 52.2523 219.754 52.2203 220.125 51.8105L218.641 50.4696ZM262.991 1.8924C263.36 1.48144 263.326 0.849188 262.915 0.48023C262.504 0.111272 261.871 0.145321 261.502 0.556282L262.991 1.8924ZM227.64 50.4625C227.27 50.8723 227.302 51.5047 227.712 51.8749C228.122 52.2452 228.754 52.2132 229.124 51.8034L227.64 50.4625ZM271.84 1.9627C272.209 1.55174 272.175 0.919495 271.764 0.550537C271.353 0.181579 270.721 0.215628 270.352 0.626588L271.84 1.9627ZM236.818 50.4439C236.448 50.8536 236.48 51.486 236.89 51.8563C237.299 52.2265 237.932 52.1945 238.302 51.7848L236.818 50.4439ZM281.048 2.14387C281.417 1.73291 281.383 1.10066 280.972 0.7317C280.561 0.362742 279.929 0.396792 279.56 0.807752L281.048 2.14387ZM245.723 50.4262C245.353 50.836 245.385 51.4683 245.795 51.8386C246.205 52.2089 246.837 52.1769 247.207 51.7671L245.723 50.4262ZM289.573 2.50357C289.942 2.09261 289.908 1.46036 289.497 1.0914C289.086 0.722444 288.453 0.756493 288.084 1.16745L289.573 2.50357ZM254.516 50.3997C254.146 50.8093 254.178 51.4417 254.587 51.8121C254.997 52.1825 255.629 52.1507 256 51.7411L254.516 50.3997ZM297.672 3.34166C298.041 2.93082 298.007 2.29856 297.596 1.92946C297.186 1.56037 296.553 1.59422 296.184 2.00506L297.672 3.34166ZM263.372 50.3673C263.002 50.7776 263.035 51.4099 263.446 51.7796C263.856 52.1493 264.488 52.1164 264.858 51.7061L263.372 50.3673ZM298.636 12.5042C299.004 12.0927 298.969 11.4605 298.558 11.0921C298.146 10.7237 297.514 10.7586 297.146 11.1701L298.636 12.5042ZM271.957 50.3222C271.585 50.7302 271.614 51.3627 272.022 51.7349C272.43 52.1071 273.062 52.0781 273.435 51.6701L271.957 50.3222ZM298.426 22.9149C298.797 22.5057 298.766 21.8733 298.357 21.5024C297.948 21.1315 297.315 21.1626 296.944 21.5719L298.426 22.9149ZM280.302 50.2491C279.926 50.6537 279.949 51.2864 280.353 51.6624C280.758 52.0383 281.391 52.0152 281.767 51.6106L280.302 50.2491ZM298.347 33.0465C298.722 32.6407 298.696 32.0081 298.291 31.6334C297.885 31.2588 297.252 31.284 296.878 31.6898L298.347 33.0465ZM289.612 50.1483C289.245 50.5615 289.283 51.1935 289.696 51.56C290.109 51.9264 290.741 51.8886 291.108 51.4754L289.612 50.1483ZM298.382 42.8748C298.747 42.4604 298.707 41.8285 298.293 41.4634C297.878 41.0983 297.246 41.1382 296.881 41.5526L298.382 42.8748ZM298.685 46.5509C298.508 36.3311 298.661 26.1075 298.751 15.8614L296.751 15.8438C296.661 26.0723 296.508 36.3321 296.685 46.5854L298.685 46.5509ZM298.751 15.8613C298.763 14.4225 298.844 12.9836 298.911 11.503C298.978 10.0337 299.031 8.53465 298.979 7.03144L296.981 7.09947C297.029 8.51805 296.98 9.94988 296.913 11.4123C296.848 12.8635 296.764 14.3573 296.751 15.8439L298.751 15.8613ZM298.979 7.03153C298.956 6.35435 298.922 5.53467 298.795 4.73705C298.67 3.94888 298.442 3.09271 297.977 2.38026L296.302 3.47342C296.544 3.84371 296.713 4.37946 296.82 5.05121C296.925 5.71351 296.958 6.42177 296.981 7.09938L298.979 7.03153ZM297.977 2.38031C297.243 1.25532 295.883 1.04006 294.934 0.990316C294.417 0.963262 293.899 0.981323 293.461 0.99888C292.996 1.01754 292.657 1.03311 292.405 1.01893L292.293 3.01579C292.667 3.0368 293.129 3.0138 293.541 2.99727C293.981 2.97964 294.416 2.96591 294.829 2.98758C295.74 3.03529 296.149 3.23957 296.302 3.47338L297.977 2.38031ZM292.405 1.01894C287.841 0.762362 283.276 0.565881 278.711 0.417299L278.646 2.41624C283.197 2.56437 287.746 2.76019 292.292 3.01579L292.405 1.01894ZM278.711 0.417299C260.142 -0.187454 44.5931 -0.000269294 26.0518 0.152018L26.0682 2.15195C44.6238 1.99955 260.126 1.81311 278.646 2.41624L278.711 0.417299ZM26.0518 0.152018C20.024 0.201349 13.9984 0.247313 7.97366 0.261089L7.97824 2.26108C14.0094 2.24729 20.0402 2.20128 26.0682 2.15195L26.0518 0.152018ZM7.97347 0.26109C7.28632 0.262795 6.60279 0.202355 5.83293 0.153145C5.08706 0.105469 4.28213 0.0707112 3.46853 0.150971L3.66488 2.14131C4.30736 2.07793 4.97611 2.10246 5.70536 2.14907C6.41062 2.19415 7.20368 2.26301 7.97843 2.26108L7.97347 0.26109ZM3.46818 0.151006C2.67832 0.229205 1.50946 0.48636 0.769271 1.59001L2.4303 2.70401C2.66028 2.3611 3.05552 2.20164 3.66523 2.14128L3.46818 0.151006ZM0.768988 1.59043C0.276775 2.32515 0.150333 3.21273 0.114815 3.95071C0.0813416 4.64619 0.130259 5.52865 0.128276 6.01981L2.12826 6.02789C2.13126 5.28396 2.07962 4.73002 2.1125 4.04686C2.14334 3.4062 2.25016 2.9729 2.43058 2.70359L0.768988 1.59043ZM0.128277 6.01963C0.114688 9.24223 0.117998 12.4645 0.127698 15.6849L2.12769 15.6788C2.118 12.4608 2.1147 9.24391 2.12826 6.02807L0.128277 6.01963ZM0.127698 15.6848C0.154037 24.5625 0.227099 33.421 0.119178 42.2808L2.11903 42.3052C2.22719 33.4254 2.15399 24.5423 2.12769 15.6789L0.127698 15.6848ZM0.119178 42.2808C0.0934533 44.3894 0.0575268 46.4971 0.00858766 48.6037L2.00805 48.6502C2.05718 46.5353 2.09323 44.4202 2.11903 42.3052L0.119178 42.2808ZM0.00859499 48.6034C-0.00532997 49.1948 -0.0149329 49.893 0.0829449 50.5701C0.181502 51.2518 0.398393 51.9878 0.892994 52.6208L2.4689 51.3893C2.26621 51.1299 2.1328 50.7711 2.06237 50.2839C1.99126 49.792 1.99399 49.2474 2.00804 48.6505L0.00859499 48.6034ZM0.893184 52.621C1.74681 53.7127 2.97876 53.9368 3.85538 53.9848L3.96452 51.9877C3.2748 51.95 2.78194 51.7896 2.46871 51.3891L0.893184 52.621ZM3.85537 53.9848C4.70482 54.0312 5.54365 53.9645 6.33423 53.8769C7.15788 53.7856 7.86708 53.6805 8.61877 53.618L8.45289 51.6248C7.67481 51.6896 6.83747 51.8088 6.11384 51.8891C5.35713 51.973 4.6479 52.0251 3.96453 51.9877L3.85537 53.9848ZM8.61853 53.618C14.6926 53.1139 20.7776 52.7882 26.8687 52.5739L26.7983 50.5751C20.6833 50.7903 14.5657 51.1176 8.45313 51.6248L8.61853 53.618ZM26.8687 52.5739C38.4223 52.167 99.2163 52.164 160.058 52.1599C220.864 52.1559 281.718 52.1508 293.318 51.7372L293.246 49.7384C281.693 50.1504 220.9 50.1559 160.058 50.1599C99.2523 50.164 38.3984 50.1666 26.7983 50.5751L26.8687 52.5739ZM293.318 51.7371C294.483 51.6948 295.755 51.325 296.783 50.4936C297.833 49.6432 298.565 48.3585 298.683 46.6363L296.687 46.5C296.606 47.6855 296.129 48.4495 295.524 48.939C294.896 49.4474 294.066 49.7086 293.246 49.7385L293.318 51.7371ZM1.98135 10.2805C3.7793 7.47068 6.18842 4.331 8.2852 1.9189L6.77577 0.606793C4.62576 3.08012 2.15546 6.2977 0.296711 9.20257L1.98135 10.2805ZM1.94552 20.9695C6.50072 14.9788 12.0425 7.66744 16.6989 1.84637L15.1371 0.59706C10.4617 6.44189 4.90246 13.7764 0.353485 19.7589L1.94552 20.9695ZM1.99427 31.03C8.74286 21.6028 17.8657 9.99353 25.4456 1.8423L23.981 0.480348C16.3241 8.71431 7.1469 20.3963 0.368015 29.8659L1.99427 31.03ZM1.93415 40.557C11.7111 27.7387 23.1741 14.1707 33.2995 1.76084L31.7499 0.496466C21.6561 12.8676 10.1473 26.4911 0.343917 39.3441L1.93415 40.557ZM1.77783 50.0796C8.45528 42.6353 15.2878 34.0821 22.1549 25.6472C29.0329 17.1991 35.9501 8.86384 42.8338 1.79879L41.4013 0.403088C34.4483 7.53931 27.4805 15.9381 20.604 24.3845C13.7167 32.8441 6.92539 41.3457 0.289015 48.7441L1.77783 50.0796ZM6.0222 53.637C12.7453 46.1938 19.908 37.7547 27.419 28.9166C34.9337 20.0739 42.8008 10.8272 50.948 1.74871L49.4595 0.412908C41.2917 9.51446 33.4078 18.781 25.895 27.6214C18.3783 36.4664 11.2367 44.8802 4.53801 52.2964L6.0222 53.637ZM15.5946 52.8046C22.2475 45.4039 29.1797 37.1399 36.455 28.4809C43.7343 19.8172 51.3613 10.7529 59.4202 1.72942L57.9285 0.397187C49.8466 9.44637 42.2013 18.5328 34.9238 27.1944C27.6423 35.8607 20.7332 44.0968 14.1073 51.4676L15.5946 52.8046ZM24.1736 52.3603C30.7261 45.0471 37.5689 36.8359 44.7486 28.2358C51.9326 19.6305 59.4584 10.6304 67.3941 1.71567L65.9003 0.385856C57.9404 9.3276 50.3954 18.351 43.2133 26.954C36.027 35.5621 29.2084 43.7438 22.684 51.0257L24.1736 52.3603ZM33.0037 52.1275C39.5051 44.8977 46.3755 36.6926 53.5802 28.1029C60.7892 19.508 68.3373 10.5227 76.2113 1.70943L74.7198 0.376924C66.822 9.21687 59.2548 18.2251 52.0479 26.8176C44.8365 35.4152 37.9901 43.5913 31.5166 50.7902L33.0037 52.1275ZM42.0676 52.03C48.5285 44.8423 55.4118 36.6337 62.6274 28.0425C69.8474 19.4461 77.4044 10.4615 85.2297 1.69906L83.7379 0.36687C75.8894 9.15531 68.3138 18.1624 61.0959 26.7562C53.8737 35.3552 47.0139 43.5355 40.5802 50.693L42.0676 52.03ZM50.8133 51.9718C57.2373 44.8648 64.1915 36.62 71.4759 27.9973C78.7649 19.3691 86.3888 10.3573 94.1692 1.69354L92.6812 0.357223C84.8775 9.04692 77.2348 18.0812 69.9481 26.7066C62.6569 35.3374 55.7263 43.5538 49.3296 50.6307L50.8133 51.9718ZM59.223 51.9373C65.6653 44.808 72.5912 36.5838 79.8481 27.9806C87.1096 19.3721 94.7069 10.379 102.509 1.68848L101.021 0.352363C93.195 9.06924 85.5786 18.0853 78.3194 26.6911C71.0556 35.3023 64.1537 43.4977 57.7391 50.5964L59.223 51.9373ZM67.7093 51.9032C74.152 44.7733 81.0539 36.5545 88.2861 27.9576C95.523 19.3551 103.095 10.3685 110.897 1.67856L109.409 0.342444C101.582 9.05987 93.9903 18.0703 86.7556 26.6701C79.5163 35.2755 72.6394 43.4642 66.2254 50.5623L67.7093 51.9032ZM76.1928 51.889C82.6352 44.7595 89.5497 36.5435 96.7952 27.9487C104.045 19.3484 111.631 10.3637 119.433 1.67331L117.945 0.337193C110.119 9.0542 102.514 18.0621 95.266 26.6596C88.0137 35.2626 81.1234 43.4495 74.7089 50.5481L76.1928 51.889ZM84.6675 51.8699C91.1105 44.7397 97.9981 36.5277 105.216 27.9379C112.439 19.3424 119.996 10.363 127.798 1.67331L126.31 0.337193C118.483 9.05486 110.905 18.0585 103.685 26.6513C96.4597 35.2497 89.5974 43.4311 83.1836 50.529L84.6675 51.8699ZM93.1484 51.8592C99.5912 44.7293 106.485 36.5196 113.709 27.9318C120.937 19.3384 128.501 10.3609 136.303 1.67098L134.815 0.334859C126.988 9.0523 119.404 18.0537 112.178 26.6444C104.947 35.2406 98.0785 43.4202 91.6645 50.5183L93.1484 51.8592ZM101.62 51.8498C108.063 44.7198 114.951 36.5124 122.169 27.9269C129.393 19.3359 136.951 10.3608 144.752 1.67098L143.264 0.334859C135.438 9.05241 127.859 18.0515 120.639 26.6399C113.413 35.2338 106.55 43.411 100.136 50.5089L101.62 51.8498ZM110.087 51.8394C116.53 44.7088 123.4 36.5028 130.6 27.9195C137.805 19.3304 145.345 10.3577 153.146 1.66835L151.658 0.332234C143.831 9.05026 136.271 18.0478 129.068 26.6342C121.861 35.2263 115.017 43.401 108.603 50.4985L110.087 51.8394ZM118.557 51.8352C124.999 44.706 131.91 36.5043 139.152 27.9235C146.399 19.3374 153.982 10.3665 161.784 1.67593L160.296 0.339819C152.47 9.05657 144.868 18.0501 137.624 26.6336C130.375 35.2223 123.488 43.3954 117.073 50.4943L118.557 51.8352ZM127.008 51.8281C133.45 44.6989 140.36 36.4983 147.601 27.9186C154.846 19.3337 162.427 10.3639 170.23 1.67331L168.741 0.337193C160.915 9.05396 153.315 18.0464 146.072 26.6287C138.824 35.2164 131.939 43.3883 125.524 50.4872L127.008 51.8281ZM135.489 51.832C141.932 44.7017 148.806 36.5009 156.01 27.9225C163.218 19.3384 170.762 10.3705 178.564 1.68089L177.075 0.344778C169.249 9.06256 161.684 18.055 154.478 26.6363C147.267 35.2234 140.418 43.3933 134.005 50.4911L135.489 51.832ZM143.95 51.8352C150.392 44.7056 157.29 36.5068 164.518 27.9292C171.75 19.3462 179.319 10.3788 187.121 1.68848L185.632 0.352363C177.806 9.06944 170.219 18.0601 162.988 26.6404C155.753 35.2262 148.88 43.3958 142.466 50.4943L143.95 51.8352ZM152.411 51.8298C158.854 44.7003 165.747 36.5046 172.972 27.9303C180.201 19.3505 187.766 10.3863 195.568 1.69606L194.08 0.359948C186.254 9.07704 178.67 18.0645 171.443 26.6416C164.211 35.2241 157.342 43.3905 150.927 50.4889L152.411 51.8298ZM160.883 51.8294C167.326 44.6995 174.206 36.5061 181.417 27.9344C188.632 19.3573 196.183 10.3959 203.985 1.70598L202.497 0.369867C194.67 9.08729 187.1 18.0724 179.887 26.6469C172.669 35.227 165.813 43.3904 159.399 50.4885L160.883 51.8294ZM169.33 51.8298C175.773 44.6996 182.641 36.5096 189.84 27.9417C197.043 19.3682 204.581 10.4108 212.382 1.72115L210.894 0.385037C203.068 9.10273 195.509 18.0844 188.308 26.6552C181.103 35.2316 174.26 43.3911 167.846 50.4889L169.33 51.8298ZM177.806 51.8284C184.248 44.6987 191.128 36.5133 198.339 27.9495C205.554 19.3801 213.105 10.4264 220.907 1.73632L219.419 0.400207C211.592 9.11745 204.022 18.0946 196.809 26.6613C189.591 35.2334 182.736 43.3892 176.322 50.4875L177.806 51.8284ZM186.256 51.8276C192.698 44.6986 199.598 36.5185 206.829 27.959C214.065 19.3943 221.636 10.4446 229.439 1.75383L227.951 0.41771C220.125 9.13426 212.535 18.1062 205.301 26.6683C198.064 35.2357 191.187 43.3876 184.772 50.4867L186.256 51.8276ZM194.716 51.8212C201.158 44.6924 208.054 36.521 215.283 27.9699C222.515 19.4138 230.084 10.4725 237.886 1.78154L236.398 0.445425C228.573 9.16185 220.985 18.1252 213.755 26.6788C206.52 35.2376 199.647 43.3811 193.232 50.4803L194.716 51.8212ZM203.19 51.8226C209.632 44.6927 216.489 36.5261 223.676 27.9813C230.867 19.431 238.394 10.4965 246.196 1.80663L244.707 0.470513C236.881 9.18797 229.334 18.1463 222.145 26.694C214.951 35.2471 208.12 43.3837 201.706 50.4817L203.19 51.8226ZM211.651 51.8166C218.094 44.6862 224.929 36.5303 232.095 27.9966C239.265 19.4573 246.771 10.5341 254.572 1.84455L253.084 0.508438C245.257 9.22623 237.731 18.1739 230.563 26.7105C223.391 35.2528 216.581 43.378 210.167 50.4757L211.651 51.8166ZM220.125 51.8105C226.568 44.6801 233.39 36.5376 240.541 28.0174C247.698 19.4916 255.189 10.5819 262.991 1.8924L261.502 0.556282C253.676 9.27414 246.164 18.2083 239.009 26.7315C231.85 35.2603 225.054 43.372 218.641 50.4696L220.125 51.8105ZM229.124 51.8034C235.568 44.6724 242.353 36.5486 249.467 28.0478C256.585 19.5414 264.039 10.6516 271.84 1.9627L270.352 0.626588C262.524 9.34506 255.049 18.2604 247.933 26.7643C240.811 35.2739 234.053 43.3656 227.64 50.4625L229.124 51.8034ZM238.302 51.7848C244.744 44.6553 251.535 36.583 258.658 28.1317C265.784 19.6753 273.246 10.8342 281.048 2.14387L279.56 0.807752C271.734 9.52477 264.253 18.3889 257.128 26.8429C249.999 35.3021 243.233 43.3453 236.818 50.4439L238.302 51.7848ZM247.207 51.7671C253.65 44.6372 260.346 36.6588 267.373 28.3019C274.404 19.9399 281.771 11.1935 289.573 2.50357L288.084 1.16745C280.258 9.88489 272.871 18.655 265.842 27.0148C258.809 35.3796 252.137 43.3281 245.723 50.4262L247.207 51.7671ZM256 51.7411C262.306 44.7666 268.912 36.9095 275.841 28.6824C282.774 20.4501 290.036 11.8419 297.672 3.34166L296.184 2.00506C288.523 10.5325 281.242 19.1641 274.311 27.394C267.375 35.6291 260.794 43.4567 254.516 50.3997L256 51.7411ZM264.858 51.7061C269.808 46.2131 275.262 39.7512 280.969 33.0007C286.679 26.2448 292.646 19.195 298.636 12.5042L297.146 11.1701C291.134 17.8854 285.149 24.9566 279.441 31.7096C273.728 38.4679 268.296 44.9028 263.372 50.3673L264.858 51.7061ZM273.435 51.6701C277.21 47.5316 281.183 42.8511 285.344 37.9588C289.509 33.0612 293.867 27.9461 298.426 22.9149L296.944 21.5719C292.36 26.6297 287.984 31.7679 283.821 36.663C279.653 41.5633 275.704 46.2147 271.957 50.3222L273.435 51.6701ZM281.767 51.6106C284.147 49.0494 286.862 45.9564 289.691 42.7362C292.525 39.511 295.478 36.1542 298.347 33.0465L296.878 31.6898C293.989 34.8185 291.02 38.1938 288.189 41.416C285.353 44.6432 282.659 47.7128 280.302 50.2491L281.767 51.6106ZM291.108 51.4754C292.174 50.2736 293.364 48.8354 294.596 47.3497C295.832 45.8581 297.114 44.3133 298.382 42.8748L296.881 41.5526C295.591 43.0173 294.289 44.5851 293.056 46.0734C291.817 47.5677 290.651 48.977 289.612 50.1483L291.108 51.4754Z" fill="#EF8CA4"/>
<path d="M105.064 32C105.284 32 105.464 31.82 105.464 31.6V26.6C105.464 26.48 105.544 26.4 105.664 26.4H106.184C106.344 26.4 106.484 26.5 106.544 26.66L108.624 31.64C108.744 31.92 108.864 32 109.124 32H111.124C111.424 32 111.624 31.8 111.624 31.54C111.624 31.42 111.604 31.36 111.524 31.16L109.464 26.4C109.384 26.2 109.364 26.1 109.364 26.02C109.364 25.9 109.444 25.82 109.584 25.74C111.004 24.92 111.664 23.76 111.664 22.2C111.664 19.7 109.964 18 107.464 18H103.064C102.844 18 102.664 18.18 102.664 18.4V31.6C102.664 31.82 102.844 32 103.064 32H105.064ZM105.664 23.6C105.544 23.6 105.464 23.52 105.464 23.4V21C105.464 20.88 105.544 20.8 105.664 20.8H107.364C108.184 20.8 108.764 21.38 108.764 22.2C108.764 23.02 108.184 23.6 107.364 23.6H105.664ZM121.497 32C121.717 32 121.897 31.82 121.897 31.6V29.6C121.897 29.38 121.717 29.2 121.497 29.2H116.757C116.637 29.2 116.557 29.12 116.557 29V26.6C116.557 26.48 116.637 26.4 116.757 26.4H121.257C121.477 26.4 121.657 26.22 121.657 26V24C121.657 23.78 121.477 23.6 121.257 23.6H116.757C116.637 23.6 116.557 23.52 116.557 23.4V21C116.557 20.88 116.637 20.8 116.757 20.8H121.417C121.637 20.8 121.817 20.62 121.817 20.4V18.4C121.817 18.18 121.637 18 121.417 18H114.157C113.937 18 113.757 18.18 113.757 18.4V31.6C113.757 31.82 113.937 32 114.157 32H121.497ZM125.769 18.3C125.729 18.1 125.569 18 125.389 18H123.289C123.029 18 122.889 18.12 122.889 18.3C122.889 18.4 122.909 18.48 122.969 18.7L126.469 31.7C126.529 31.9 126.669 32 126.849 32H129.529C129.709 32 129.849 31.9 129.909 31.7L133.389 18.7C133.449 18.48 133.469 18.4 133.469 18.3C133.469 18.12 133.329 18 133.069 18H130.969C130.789 18 130.629 18.1 130.589 18.3L128.309 27.98C128.289 28.1 128.269 28.16 128.209 28.16H128.129C128.069 28.16 128.049 28.1 128.029 27.98L125.769 18.3ZM142.806 32C143.026 32 143.206 31.82 143.206 31.6V29.6C143.206 29.38 143.026 29.2 142.806 29.2H138.066C137.946 29.2 137.866 29.12 137.866 29V26.6C137.866 26.48 137.946 26.4 138.066 26.4H142.566C142.786 26.4 142.966 26.22 142.966 26V24C142.966 23.78 142.786 23.6 142.566 23.6H138.066C137.946 23.6 137.866 23.52 137.866 23.4V21C137.866 20.88 137.946 20.8 138.066 20.8H142.726C142.946 20.8 143.126 20.62 143.126 20.4V18.4C143.126 18.18 142.946 18 142.726 18H135.466C135.246 18 135.066 18.18 135.066 18.4V31.6C135.066 31.82 135.246 32 135.466 32H142.806ZM146.698 32C146.878 32 147.018 31.9 147.078 31.7L147.638 29.64C147.698 29.44 147.758 29.34 147.938 29.34H150.978C151.158 29.34 151.218 29.46 151.278 29.64L151.898 31.7C151.958 31.9 152.098 32 152.278 32H154.378C154.638 32 154.778 31.88 154.778 31.7C154.778 31.6 154.758 31.52 154.698 31.3L151.218 18.3C151.158 18.1 151.018 18 150.838 18H148.158C147.978 18 147.838 18.1 147.778 18.3L144.278 31.3C144.218 31.52 144.198 31.6 144.198 31.7C144.198 31.88 144.338 32 144.598 32H146.698ZM148.558 26.54C148.438 26.54 148.378 26.46 148.398 26.32L149.338 21.62C149.358 21.5 149.378 21.44 149.438 21.44H149.518C149.578 21.44 149.598 21.5 149.618 21.62L150.558 26.32C150.578 26.46 150.518 26.54 150.398 26.54H148.558ZM163.575 32C163.795 32 163.975 31.82 163.975 31.6V29.6C163.975 29.38 163.795 29.2 163.575 29.2H159.375C159.255 29.2 159.175 29.12 159.175 29V18.4C159.175 18.18 158.995 18 158.775 18H156.775C156.555 18 156.375 18.18 156.375 18.4V31.6C156.375 31.82 156.555 32 156.775 32H163.575ZM172.992 32.2C175.932 32.2 177.872 30.48 177.872 27.84C177.872 25.7 176.852 24.32 174.172 23.62C171.852 23.02 171.352 22.54 171.352 21.82C171.352 20.98 171.972 20.52 173.092 20.52C174.072 20.52 174.772 21.12 174.772 22V22.1C174.772 22.32 174.952 22.5 175.172 22.5H177.192C177.412 22.5 177.592 22.32 177.592 22.1V22C177.592 19.54 175.932 17.8 173.092 17.8C170.252 17.8 168.452 19.52 168.452 21.72C168.452 23.82 169.512 25.3 172.032 25.96C174.612 26.64 174.972 27.1 174.972 28.04C174.972 28.9 174.192 29.46 172.992 29.46C171.832 29.46 171.052 28.82 171.052 27.84V27.44C171.052 27.22 170.872 27.04 170.652 27.04H168.532C168.312 27.04 168.132 27.22 168.132 27.44V27.84C168.132 30.44 170.112 32.2 172.992 32.2ZM184.271 32.2C186.431 32.2 187.911 31.12 188.611 29.56C189.131 28.4 189.171 26.9 189.171 25C189.171 23.1 189.131 21.6 188.611 20.44C187.911 18.88 186.431 17.8 184.271 17.8C182.111 17.8 180.631 18.88 179.931 20.44C179.411 21.6 179.371 23.1 179.371 25C179.371 26.9 179.411 28.4 179.931 29.56C180.631 31.12 182.111 32.2 184.271 32.2ZM184.271 29.38C183.371 29.38 182.791 29.06 182.511 28.44C182.251 27.86 182.231 26.28 182.231 25C182.231 23.72 182.251 22.14 182.511 21.56C182.791 20.94 183.371 20.62 184.271 20.62C185.171 20.62 185.751 20.94 186.031 21.56C186.291 22.14 186.311 23.72 186.311 25C186.311 26.28 186.291 27.86 186.031 28.44C185.751 29.06 185.171 29.38 184.271 29.38ZM195.872 32.2C198.032 32.2 199.512 31.12 200.212 29.56C200.732 28.4 200.772 26.9 200.772 25C200.772 23.1 200.732 21.6 200.212 20.44C199.512 18.88 198.032 17.8 195.872 17.8C193.712 17.8 192.232 18.88 191.532 20.44C191.012 21.6 190.972 23.1 190.972 25C190.972 26.9 191.012 28.4 191.532 29.56C192.232 31.12 193.712 32.2 195.872 32.2ZM195.872 29.38C194.972 29.38 194.392 29.06 194.112 28.44C193.852 27.86 193.832 26.28 193.832 25C193.832 23.72 193.852 22.14 194.112 21.56C194.392 20.94 194.972 20.62 195.872 20.62C196.772 20.62 197.352 20.94 197.632 21.56C197.892 22.14 197.912 23.72 197.912 25C197.912 26.28 197.892 27.86 197.632 28.44C197.352 29.06 196.772 29.38 195.872 29.38ZM205.474 32C205.694 32 205.874 31.82 205.874 31.6V24.08C205.874 23.96 206.014 23.92 206.054 24.04L208.774 31.66C208.834 31.82 208.974 32 209.314 32H211.674C211.894 32 212.074 31.82 212.074 31.6V18.4C212.074 18.18 211.894 18 211.674 18H209.674C209.454 18 209.274 18.18 209.274 18.4V26.52C209.274 26.64 209.134 26.68 209.094 26.56L206.354 18.36C206.294 18.18 206.154 18 205.854 18H203.474C203.254 18 203.074 18.18 203.074 18.4V31.6C203.074 31.82 203.254 32 203.474 32H205.474ZM217.271 32C217.491 32 217.671 31.82 217.671 31.6V29.2C217.671 28.98 217.491 28.8 217.271 28.8H214.871C214.651 28.8 214.471 28.98 214.471 29.2V31.6C214.471 31.82 214.651 32 214.871 32H217.271ZM222.466 32C222.686 32 222.866 31.82 222.866 31.6V29.2C222.866 28.98 222.686 28.8 222.466 28.8H220.066C219.846 28.8 219.666 28.98 219.666 29.2V31.6C219.666 31.82 219.846 32 220.066 32H222.466Z" fill="#EF8CA4"/>
<path d="M90.2809 25.8272C85.4811 31.3667 77.3685 33.5506 71.6151 28.2456C70.4743 27.1937 69.4924 25.9299 68.7207 24.5556C70.3743 21.9948 72.1317 19.6757 74.8287 18.2902C80.7337 15.256 87.7874 18.8023 90.6591 24.7198" stroke="#EF8CA4" stroke-width="2" stroke-miterlimit="1.5" stroke-linecap="round" stroke-linejoin="round"/>
<path fill-rule="evenodd" clip-rule="evenodd" d="M81.4842 21.4592C80.6657 21.0178 79.7909 20.8656 78.9093 21.2171C76.9169 22.0119 76.2561 24.8876 77.6861 26.5339C79.8269 28.9984 83.8926 26.1243 82.7967 23.1121" fill="#EF8CA4"/>
<path d="M81.4842 21.4592C80.6657 21.0178 79.7909 20.8656 78.9093 21.2171C76.9169 22.0119 76.2561 24.8876 77.6861 26.5339C79.8269 28.9984 83.8926 26.1243 82.7967 23.1121" stroke="#EF8CA4" stroke-width="2" stroke-miterlimit="1.5" stroke-linecap="round" stroke-linejoin="round"/>
<path d="M69.1143 29.401C69.6231 28.6994 70.1231 27.973 70.6791 27.3114" stroke="#EF8CA4" stroke-width="2" stroke-miterlimit="1.5" stroke-linecap="round" stroke-linejoin="round"/>
<path d="M71.833 31.6099C72.2716 30.8958 72.7587 30.2184 73.2429 29.5385" stroke="#EF8CA4" stroke-width="2" stroke-miterlimit="1.5" stroke-linecap="round" stroke-linejoin="round"/>
<path d="M75.2666 33.2756C75.7279 32.4991 76.2206 31.7321 76.7391 30.9963" stroke="#EF8CA4" stroke-width="2" stroke-miterlimit="1.5" stroke-linecap="round" stroke-linejoin="round"/>
<path d="M79.6797 33.9999C80.2229 33.0317 80.7168 32.0223 81.3544 31.1165" stroke="#EF8CA4" stroke-width="2" stroke-miterlimit="1.5" stroke-linecap="round" stroke-linejoin="round"/>
<path d="M84.1523 33.1941C84.7811 31.8724 85.3974 30.4881 86.1877 29.2605" stroke="#EF8CA4" stroke-width="2" stroke-miterlimit="1.5" stroke-linecap="round" stroke-linejoin="round"/>
<path d="M90.303 25.8264C89.6946 27.1529 89.0989 28.4859 88.4912 29.8127" stroke="#EF8CA4" stroke-width="2" stroke-miterlimit="1.5" stroke-linecap="round" stroke-linejoin="round"/>
</svg>
