<svg width="32" height="27" viewBox="0 0 32 27" fill="none" xmlns="http://www.w3.org/2000/svg">
<path d="M32 3.74272C30.8226 4.2654 29.5574 4.6174 28.2294 4.77606C29.5854 3.96406 30.6266 2.6774 31.116 1.14406C29.848 1.89606 28.4426 2.44272 26.9466 2.7374C25.7506 1.4614 24.0426 0.664062 22.1546 0.664062C17.916 0.664062 14.8013 4.61872 15.7587 8.72406C10.304 8.45072 5.46666 5.8374 2.228 1.8654C0.508 4.81606 1.336 8.67606 4.25866 10.6307C3.184 10.5961 2.17066 10.3014 1.28666 9.8094C1.21466 12.8508 3.39466 15.696 6.552 16.3294C5.628 16.58 4.616 16.6388 3.58666 16.4414C4.42134 19.0494 6.84534 20.9468 9.72 21C6.96 23.164 3.48266 24.1308 0 23.72C2.90534 25.5828 6.35734 26.6694 10.064 26.6694C22.2534 26.6694 29.14 16.3748 28.724 7.1414C30.0066 6.21472 31.12 5.05872 32 3.74272Z" fill="#2F4181"/>
</svg>
